<?xml version="1.0" standalone="no"?>
<svg width="375" height="812" title="polygons" version="1.1" viewBox="0 0 375 812" xmlns="http://www.w3.org/2000/svg" class="svg-paper"><!----> <g><desc>pwidth:375;pheight:812;pcolor:;seed:2768};sf:i+i*7;rf:10*sin(i/2);xf:300;yf:400;qt:30;sd:5;rn:0.3;minrd:194;maxrd:50;mina:94;maxa:310;cv:curveCatmullRomClosed;rd:false</desc> <path stroke="#000000" stroke-width="0.3mm" fill="none" d="M378.91,222.77C326.75,199.55,225.55,211.97,180.56,247.13C135.57,282.28,99.03,377.46,108.95,433.69C118.86,489.92,182.63,584.15,240.05,584.50C306.29,584.91,477.90,450.83,493.53,386.47C507.08,330.67,431.07,246.00,378.91,222.77"/><path stroke="#000000" stroke-width="0.3mm" fill="none" d="M366.45,209.24C310.31,189.69,206.39,211.38,162.77,251.77C119.14,292.16,89.52,394.10,104.70,451.58C119.88,509.06,194.24,601.29,253.85,596.66C322.62,591.32,489.01,437.26,499.63,369.12C508.83,310.04,422.59,228.80,366.45,209.24"/><path stroke="#000000" stroke-width="0.3mm" fill="none" d="M356.42,197.72C296.89,181.12,190.50,210.45,147.89,255.22C105.28,299.99,81.23,407.70,100.75,466.34C120.28,524.98,203.49,615.79,265.03,607.07C336.02,597.01,498.55,426.25,505.09,354.85C510.76,292.95,415.96,214.33,356.42,197.72"/><path stroke="#000000" stroke-width="0.3mm" fill="none" d="M352.83,188.50C290.58,172.95,181.01,206.40,138.06,254.06C95.11,301.72,73.20,414.17,95.11,474.47C117.03,534.77,205.95,626.65,269.57,615.87C342.95,603.42,506.78,421.63,511.55,347.35C515.68,282.96,415.08,204.05,352.83,188.50"/><path stroke="#000000" stroke-width="0.3mm" fill="none" d="M358.14,181.61C293.86,164.49,179.75,197.42,134.46,246.14C89.18,294.86,64.68,411.07,86.43,473.93C108.19,536.78,198.89,633.44,265.01,623.27C341.28,611.55,514.00,425.72,520.12,348.80C525.44,282.12,422.42,198.72,358.14,181.61"/><path stroke="#000000" stroke-width="0.3mm" fill="none" d="M372.37,177.47C306.88,156.17,187.05,183.80,137.49,231.63C87.94,279.46,56.08,398.23,75.05,464.44C94.01,530.65,182.36,635.67,251.29,628.87C330.80,621.03,519.80,438.61,530.46,359.43C539.69,290.78,437.86,198.77,372.37,177.47"/><path stroke="#000000" stroke-width="0.3mm" fill="none" d="M392.96,176.56C327.20,149.21,201.39,167.81,146.36,213.03C91.33,258.25,48.69,378.06,62.78,447.88C76.88,517.70,159.29,633.25,230.91,631.93C313.52,630.40,523.41,457.93,540.92,377.18C556.10,307.18,458.72,203.92,392.96,176.56"/><path stroke="#000000" stroke-width="0.3mm" fill="none" d="M415.47,178.26C350.21,144.28,219.07,152.28,158.43,193.95C97.78,235.62,43.28,355.16,51.60,428.27C59.92,501.37,134.51,627.61,208.34,632.59C293.51,638.34,524.81,479.41,549.99,397.85C571.82,327.15,480.73,212.25,415.47,178.26"/><path stroke="#000000" stroke-width="0.3mm" fill="none" d="M435.07,180.18C370.37,140.43,234.79,139.08,169.32,177.54C103.85,216.01,39.01,335.08,42.23,410.95C45.45,486.81,113.01,622.21,188.65,632.73C275.90,644.87,525.62,498.18,557.50,416.06C585.13,344.87,499.76,219.93,435.07,180.18"/><path stroke="#000000" stroke-width="0.3mm" fill="none" d="M447.88,178.89C382.80,135.37,243.18,128.60,174.20,165.63C105.22,202.65,33.70,322.76,34.00,401.04C34.31,479.33,98.54,621.51,176.04,635.35C265.45,651.32,528.55,510.10,564.65,426.77C595.95,354.52,512.95,222.42,447.88,178.89"/><path stroke="#000000" stroke-width="0.3mm" fill="none" d="M451.59,171.75C384.41,127.14,240.56,120.63,169.63,159.00C98.70,197.37,25.43,321.32,26.01,401.96C26.59,482.60,93.22,628.84,173.10,642.84C265.25,659.00,535.79,512.65,572.70,426.69C604.69,352.16,518.76,216.37,451.59,171.75"/><path stroke="#000000" stroke-width="0.3mm" fill="none" d="M445.47,158.42C374.37,115.60,226.18,115.46,154.99,158.14C83.81,200.82,14.11,331.60,18.37,414.49C22.64,497.37,97.80,644.70,180.57,655.46C276.05,667.88,547.56,505.10,581.60,415.03C611.11,336.95,516.58,201.23,445.47,158.42"/><path stroke="#000000" stroke-width="0.3mm" fill="none" d="M430.73,141.14C354.54,102.66,202.55,113.84,132.81,163.05C63.07,212.25,1.58,351.70,12.29,436.38C23.00,521.05,111.34,666.40,197.05,671.11C295.91,676.55,561.91,488.86,589.94,393.90C614.23,311.57,506.92,179.61,430.73,141.14"/><path stroke="#000000" stroke-width="0.3mm" fill="none" d="M410.90,123.41C329.50,90.77,174.89,115.67,107.85,172.23C40.81,228.78,-9.78,376.99,8.68,462.73C27.14,548.47,130.45,689.44,218.62,686.67C320.31,683.48,576.01,467.77,596.28,368.07C613.86,281.63,492.31,156.05,410.90,123.41"/><path stroke="#000000" stroke-width="0.3mm" fill="none" d="M391.66,108.05C305.73,81.07,149.41,118.80,85.26,182.01C21.10,245.21,-18.98,400.95,6.71,487.27C32.39,573.59,149.32,709.74,239.36,699.93C343.22,688.62,587.94,447.55,600.81,343.87C611.97,253.99,477.59,135.03,391.66,108.05"/><path stroke="#000000" stroke-width="0.3mm" fill="none" d="M379.26,96.17C289.83,72.84,131.52,119.38,68.94,187.38C6.36,255.38,-26.87,417.02,3.79,504.20C34.46,591.37,161.15,725.04,252.94,710.45C358.82,693.63,597.50,434.25,605.48,327.34C612.39,234.65,468.68,119.49,379.26,96.17"/><path stroke="#000000" stroke-width="0.3mm" fill="none" d="M378.48,87.71C286.57,64.61,124.65,113.79,61.11,184.10C-2.44,254.41,-35.03,420.45,-2.79,509.57C29.46,598.68,160.60,734.58,254.59,718.78C363.01,700.56,605.38,432.39,612.58,322.68C618.82,227.58,470.39,110.81,378.48,87.71"/><path stroke="#000000" stroke-width="0.3mm" fill="none" d="M391.04,82.81C297.69,56.01,130.17,100.85,62.68,170.70C-4.81,240.55,-43.86,409.51,-13.88,501.89C16.11,594.27,145.80,737.94,242.61,724.97C354.28,710.01,611.69,443.60,622.81,331.47C632.44,234.27,484.40,109.60,391.04,82.81"/><path stroke="#000000" stroke-width="0.3mm" fill="none" d="M414.93,82.14C321.38,48.31,147.09,82.58,73.30,149.30C-0.48,216.02,-52.06,385.99,-27.79,482.46C-3.52,578.94,119.09,734.71,218.92,728.13C334.08,720.55,615.51,466.06,634.61,352.25C651.17,253.59,508.48,115.97,414.93,82.14"/><path stroke="#000000" stroke-width="0.3mm" fill="none" d="M444.86,85.79C352.39,43.15,171.64,62.94,90.58,124.58C9.51,186.21,-57.87,355.10,-41.50,455.61C-25.14,556.12,86.38,725.66,188.77,727.63C306.89,729.91,616.07,494.82,645.44,380.39C670.91,281.20,537.34,128.42,444.86,85.79"/><path stroke="#000000" stroke-width="0.3mm" fill="none" d="M474.00,91.71C383.26,40.50,197.30,45.57,109.48,101.64C21.67,157.71,-61.16,324.28,-52.88,428.14C-44.60,532.00,54.94,714.21,159.18,724.79C279.43,736.99,614.36,523.12,653.89,408.90C688.15,309.88,564.73,142.92,474.00,91.71"/><path stroke="#000000" stroke-width="0.3mm" fill="none" d="M496.08,95.70C406.52,37.99,216.38,32.03,123.38,84.01C30.38,135.99,-64.16,301.08,-61.92,407.60C-59.68,514.12,31.01,706.09,136.80,723.12C258.82,742.78,613.55,544.51,660.73,430.27C701.64,331.24,585.64,153.41,496.08,95.70"/><path stroke="#000000" stroke-width="0.3mm" fill="none" d="M506.90,93.26C416.62,32.36,222.45,22.19,126.29,73.31C30.14,124.43,-70.00,291.10,-70.00,400.00C-70.00,508.90,18.56,707.01,126.30,726.69C250.57,749.39,617.30,554.40,667.97,438.67C711.90,338.35,597.18,154.15,506.90,93.26"/><path stroke="#000000" stroke-width="0.3mm" fill="none" d="M504.51,82.10C410.95,21.91,212.40,15.83,115.33,70.18C18.26,124.53,-80.33,296.99,-77.91,408.22C-75.49,519.44,19.36,719.82,129.84,737.53C257.27,757.96,627.52,550.65,676.70,431.33C719.34,327.89,598.08,142.29,504.51,82.10"/><path stroke="#000000" stroke-width="0.3mm" fill="none" d="M489.29,63.60C390.28,7.89,187.51,13.67,91.84,74.94C-3.83,136.20,-93.92,317.95,-84.74,431.19C-75.56,544.42,33.23,742.96,146.91,754.34C278.05,767.48,642.96,533.80,685.89,409.20C723.11,301.18,588.30,119.31,489.29,63.60"/><path stroke="#000000" stroke-width="0.3mm" fill="none" d="M464.41,41.94C359.03,-6.45,153.24,16.41,61.04,86.74C-31.16,157.07,-107.59,349.50,-88.78,463.92C-69.97,578.35,57.32,771.21,173.92,773.28C308.42,775.67,660.08,507.42,693.33,377.07C722.16,264.06,569.79,90.33,464.41,41.94"/><path stroke="#000000" stroke-width="0.3mm" fill="none" d="M436.16,21.76C324.84,-18.31,117.61,22.73,29.96,102.20C-57.69,181.68,-118.74,383.93,-89.71,498.62C-60.69,613.32,85.40,798.39,204.12,790.40C341.07,781.19,675.36,478.05,697.89,342.65C717.42,225.28,547.48,61.84,436.16,21.76"/><path stroke="#000000" stroke-width="0.3mm" fill="none" d="M412.75,5.81C296.73,-27.38,88.65,28.53,4.88,115.38C-78.88,202.24,-127.21,412.22,-89.85,526.95C-52.48,641.69,108.80,820.05,229.07,803.82C367.80,785.10,687.30,453.81,700.98,314.49C712.85,193.72,528.77,38.99,412.75,5.81"/><path stroke="#000000" stroke-width="0.3mm" fill="none" d="M401.79,-5.42C282.47,-35.38,72.29,28.50,-10.18,119.79C-92.64,211.08,-134.91,426.65,-93.03,542.32C-51.14,657.99,119.14,834.37,241.15,813.84C381.89,790.15,696.44,441.96,705.75,299.54C713.82,176.08,521.11,24.54,401.79,-5.42"/><path stroke="#000000" stroke-width="0.3mm" fill="none" d="M407.75,-12.15C286.45,-43.86,71.63,19.16,-13.32,111.37C-98.27,203.59,-143.48,422.85,-101.94,541.14C-60.40,659.44,111.38,840.87,235.92,821.15C379.58,798.41,703.59,446.68,714.49,301.64C723.94,175.91,529.05,19.56,407.75,-12.15"/></g></svg>